HIERARCHY
ROOT Hips
{
	OFFSET -13.091600 -28.302996 44.698402
	CHANNELS 6 Xposition Yposition Zposition Zrotation Xrotation Yrotation
	JOINT Chest
	{
		OFFSET -0.673000 0.623899 5.369202
		CHANNELS 6 Xposition Yposition Zposition Zrotation Xrotation Yrotation
		JOINT Chest2
		{
			OFFSET 0.000000 0.000000 4.415001
			CHANNELS 6 Xposition Yposition Zposition Zrotation Xrotation Yrotation
			JOINT Neck
			{
				OFFSET 0.000000 0.000002 10.273300
				CHANNELS 6 Xposition Yposition Zposition Zrotation Xrotation Yrotation
				JOINT Head
				{
					OFFSET 0.000000 0.000000 2.173897
					CHANNELS 6 Xposition Yposition Zposition Zrotation Xrotation Yrotation
					End Site
					{
						OFFSET 0.000000 0.000000 9.961800
					}
				}
			}
			JOINT LeftCollar
			{
				OFFSET 2.359900 -0.565201 5.928101
				CHANNELS 6 Xposition Yposition Zposition Zrotation Xrotation Yrotation
				JOINT LeftShoulder
				{
					OFFSET 5.443700 0.000000 0.000000
					CHANNELS 6 Xposition Yposition Zposition Zrotation Xrotation Yrotation
					JOINT LeftElbow
					{
						OFFSET 0.000000 0.000000 -10.615799
						CHANNELS 6 Xposition Yposition Zposition Zrotation Xrotation Yrotation
						JOINT LeftWrist
						{
							OFFSET 0.000000 -0.000002 -13.110302
							CHANNELS 6 Xposition Yposition Zposition Zrotation Xrotation Yrotation
							End Site
							{
								OFFSET 0.000000 0.000000 -2.173901
							}
						}
					}
				}
			}
			JOINT RightCollar
			{
				OFFSET -2.636600 -1.718800 6.889698
				CHANNELS 6 Xposition Yposition Zposition Zrotation Xrotation Yrotation
				JOINT RightShoulder
				{
					OFFSET -4.139101 0.000000 0.000000
					CHANNELS 6 Xposition Yposition Zposition Zrotation Xrotation Yrotation
					JOINT RightElbow
					{
						OFFSET 0.000000 0.000000 -10.471802
						CHANNELS 6 Xposition Yposition Zposition Zrotation Xrotation Yrotation
						JOINT RightWrist
						{
							OFFSET 0.000000 0.000000 -12.281898
							CHANNELS 6 Xposition Yposition Zposition Zrotation Xrotation Yrotation
							End Site
							{
								OFFSET 0.000000 -0.000002 -2.173901
							}
						}
					}
				}
			}
		}
	}
	JOINT LeftHip
	{
		OFFSET 2.273400 0.176701 -2.518002
		CHANNELS 6 Xposition Yposition Zposition Zrotation Xrotation Yrotation
		JOINT LeftKnee
		{
			OFFSET 0.000000 -0.000002 -20.456402
			CHANNELS 6 Xposition Yposition Zposition Zrotation Xrotation Yrotation
			JOINT LeftAnkle
			{
				OFFSET 0.000000 -0.000002 -16.635300
				CHANNELS 6 Xposition Yposition Zposition Zrotation Xrotation Yrotation
				End Site
				{
					OFFSET 0.000000 -8.812399 0.000001
				}
			}
		}
	}
	JOINT RightHip
	{
		OFFSET -1.914800 0.018101 -2.699299
		CHANNELS 6 Xposition Yposition Zposition Zrotation Xrotation Yrotation
		JOINT RightKnee
		{
			OFFSET 0.000000 -0.000002 -20.148901
			CHANNELS 6 Xposition Yposition Zposition Zrotation Xrotation Yrotation
			JOINT RightAnkle
			{
				OFFSET 0.000000 -0.000002 -16.838301
				CHANNELS 6 Xposition Yposition Zposition Zrotation Xrotation Yrotation
				End Site
				{
					OFFSET 0.000000 -8.328398 0.000001
				}
			}
		}
	}
}
MOTION
Frames: 5
Frame Time: 0.041667
-9.580899 -3.267296 19.962301 1853.949174 43.142572 -27.675961 -0.673000 0.623899 5.369210 26.830923 2.155447 -12.906020 0.000001 -0.000000 4.415005 -1.144546 -7.509113 -0.833488 0.000001 0.000004 10.273299 -50.590713 -17.585907 8.944657 -0.000000 0.000000 2.173901 -4.649313 -5.127868 -4.303765 2.359898 -0.565202 5.928100 14.154233 0.677076 -16.662552 5.443702 -0.000004 -0.000001 12.268187 -4.324406 -96.269747 -0.000000 -0.000003 -10.615793 623.107940 -182.086532 177.257916 -0.000001 -0.000006 -13.110293 -1091.081739 3.518157 -5.945528 -2.636609 -1.718802 6.889702 177.075564 -184.065006 157.607653 -4.139100 0.000004 -0.000004 452.182101 -395.517376 520.673626 0.000001 -0.000003 -10.471798 -19.328242 -7.135964 -363.388057 -0.000003 -0.000003 -12.281900 361.423312 12.641116 56.827000 2.273400 0.176704 -2.518002 -37.106406 -158.167510 -44.331876 0.000000 0.000001 -20.456394 62.165950 177.987722 -46.891690 -0.000003 -0.000006 -16.635300 59.554223 -3.833607 37.630442 -1.914794 0.018101 -2.699298 0.834066 160.163005 93.884010 -0.000001 -0.000002 -20.148901 -6.420418 -46.646032 1.967792 0.000002 -0.000003 -16.838305 185.792306 -22.172841 -96.861815
-9.599100 -3.260992 19.775402 1853.351614 42.839862 -27.103924 -0.673002 0.623901 5.369209 27.198923 3.160307 -13.024173 0.000002 0.000004 4.415004 -1.293682 -7.535930 -0.844061 -0.000001 -0.000002 10.273304 -50.462209 -17.318815 8.347280 -0.000002 -0.000006 2.173903 -5.122126 -5.349012 -3.291292 2.359901 -0.565202 5.928099 14.236673 0.583237 -17.079955 5.443702 -0.000004 0.000001 12.107411 -3.915631 -95.724603 0.000002 0.000002 -10.615793 623.825766 -181.949122 177.298925 -0.000001 -0.000007 -13.110301 -1093.350127 3.681464 -6.177463 -2.636601 -1.718808 6.889698 175.864640 -183.266994 158.433164 -4.139098 -0.000005 0.000005 449.896064 -396.155398 518.498621 -0.000004 -0.000004 -10.471804 -19.628627 -7.374895 -363.500099 -0.000005 -0.000003 -12.281900 362.616655 12.783558 57.479245 2.273397 0.176703 -2.518004 -36.889940 -158.327104 -43.899938 0.000001 -0.000002 -20.456396 61.730334 178.113384 -46.390843 -0.000005 -0.000005 -16.635298 60.060476 -3.691395 37.837377 -1.914797 0.018099 -2.699293 1.760978 160.851720 93.358652 0.000000 -0.000004 -20.148897 -6.449819 -48.224134 2.417031 0.000002 -0.000002 -16.838306 185.832481 -21.579271 -96.797414
-9.614900 -3.257492 19.590004 1852.765638 42.536256 -26.582978 -0.673003 0.623898 5.369210 27.462306 4.178531 -13.120660 0.000003 0.000004 4.415005 -1.457409 -7.532636 -0.856088 0.000003 0.000002 10.273300 -50.297189 -17.074802 7.868362 -0.000003 -0.000005 2.173897 -4.923883 -5.236104 -3.332441 2.359902 -0.565198 5.928096 14.431621 0.313536 -17.576768 5.443698 -0.000004 0.000002 11.856630 -3.282698 -95.108192 0.000003 -0.000003 -10.615788 624.582387 -181.834526 177.324319 0.000000 -0.000002 -13.110293 -1094.850910 3.776099 -6.329935 -2.636605 -1.718801 6.889699 174.904479 -182.551381 159.573573 -4.139097 0.000006 0.000001 447.353867 -397.027613 516.187558 -0.000003 -0.000006 -10.471803 -20.252935 -7.668116 -363.579111 0.000002 -0.000001 -12.281898 363.429530 12.853041 57.978607 2.273396 0.176697 -2.518003 -36.621500 -158.423629 -43.523311 0.000002 0.000000 -20.456394 61.360650 178.213337 -45.894640 -0.000004 -0.000005 -16.635298 60.470779 -3.588912 38.049331 -1.914798 0.018096 -2.699299 2.652774 161.680454 92.849742 -0.000000 -0.000000 -20.148903 -6.465335 -49.681085 2.966537 0.000002 0.000001 -16.838306 185.816949 -20.993027 -96.722521
-9.630801 -3.257692 19.410898 1852.226654 42.253060 -26.116072 -0.673002 0.623898 5.369209 27.586405 5.170546 -13.212457 0.000002 -0.000004 4.415007 -1.600346 -7.490838 -0.864859 -0.000007 -0.000003 10.273295 -50.096186 -16.887991 7.497243 -0.000001 -0.000003 2.173897 -5.268458 -5.388008 -2.713954 2.359898 -0.565204 5.928101 14.841579 0.060003 -18.164898 5.443701 0.000000 -0.000000 11.452191 -2.771244 -94.330663 0.000003 0.000001 -10.615791 625.239505 -181.735488 177.341832 -0.000000 -0.000006 -13.110294 -1095.779160 3.823514 -6.416979 -2.636604 -1.718804 6.889700 174.169906 -181.981607 161.048921 -4.139099 -0.000003 0.000004 445.027833 -398.062769 514.185329 -0.000002 -0.000003 -10.471802 -21.079350 -7.770214 -363.734156 0.000003 -0.000004 -12.281894 363.923599 12.866610 58.472607 2.273396 0.176698 -2.518007 -36.686609 -159.121660 -43.205864 -0.000002 -0.000002 -20.456396 60.489535 178.412970 -45.234803 -0.000003 -0.000005 -16.635300 60.928347 -3.479442 38.279474 -1.914799 0.018097 -2.699302 3.248117 161.669362 92.337710 0.000002 -0.000002 -20.148905 -6.630295 -50.931781 2.772489 0.000000 -0.000005 -16.838310 186.360523 -20.705426 -97.475870
-9.646801 -3.261791 19.242298 1851.737504 42.010783 -25.703865 -0.673003 0.623898 5.369208 27.555254 6.132346 -13.272816 0.000001 -0.000001 4.415006 -1.655680 -7.454148 -0.873475 -0.000003 0.000000 10.273304 -49.854408 -16.741337 7.222300 -0.000003 -0.000005 2.173903 -5.280091 -5.457995 -2.674310 2.359900 -0.565201 5.928101 15.086947 -0.351236 -18.683709 5.443695 0.000003 -0.000002 11.064385 -2.038891 -93.725816 0.000006 0.000000 -10.615793 625.876462 -181.778149 177.298542 -0.000001 -0.000007 -13.110298 -1096.346995 3.853291 -6.450096 -2.636606 -1.718805 6.889703 173.284112 -178.258703 162.585126 -4.139093 0.000003 0.000003 439.803940 -398.704424 508.351364 -0.000003 -0.000003 -10.471803 -21.785773 -7.825113 -363.875459 -0.000003 -0.000001 -12.281887 364.206915 12.893574 58.870507 2.273397 0.176702 -2.518004 -36.446634 -159.338983 -42.880754 0.000000 0.000000 -20.456396 60.111655 178.555434 -44.722310 -0.000004 -0.000007 -16.635298 61.234681 -3.414053 38.440506 -1.914795 0.018099 -2.699296 4.026413 162.309788 91.875238 -0.000001 -0.000005 -20.148901 -6.738916 -52.247351 3.099227 0.000001 -0.000004 -16.838303 186.436297 -20.180258 -97.580727
